<?xml version="1.0" standalone="no"?>
<!DOCTYPE svg PUBLIC "-//W3C//DTD SVG 20010904//EN"
 "http://www.w3.org/TR/2001/REC-SVG-20010904/DTD/svg10.dtd">
<svg version="1.0" xmlns="http://www.w3.org/2000/svg"
 width="500.000000pt" height="500.000000pt" viewBox="0 0 500.000000 500.000000"
 preserveAspectRatio="xMidYMid meet">
<metadata>
Created by potrace 1.14, written by Peter Selinger 2001-2017
</metadata>
<g transform="translate(0.000000,500.000000) scale(0.100000,-0.100000)"
fill="#000000" stroke="none">
<path d="M2368 4054 c-2 -1 -69 -6 -148 -9 -80 -3 -165 -8 -190 -10 -25 -2
-99 -7 -165 -10 -169 -10 -185 -11 -230 -23 -22 -6 -63 -13 -92 -15 -29 -3
-57 -8 -64 -13 -7 -4 -45 -9 -86 -10 -40 -2 -83 -9 -96 -16 -12 -7 -28 -11
-34 -10 -7 2 -22 -2 -34 -9 -12 -6 -53 -20 -92 -30 -94 -27 -196 -75 -329
-156 -148 -90 -159 -109 -174 -278 -3 -33 -7 -66 -9 -72 -6 -19 29 -38 121
-68 l81 -26 -4 -43 c-5 -42 -4 -44 69 -117 87 -87 100 -115 60 -130 -95 -35
-166 -89 -197 -148 -9 -18 -24 -31 -34 -31 -27 0 -38 -18 -56 -86 -19 -75 -24
-137 -14 -187 4 -22 2 -54 -3 -71 -14 -45 -10 -137 7 -163 8 -12 15 -29 15
-37 0 -16 83 -128 130 -175 14 -14 30 -42 37 -61 38 -114 38 -114 89 -132 41
-14 51 -15 58 -4 8 11 21 9 73 -10 35 -13 77 -24 94 -24 17 0 39 -4 49 -10 10
-5 49 -12 87 -14 90 -5 128 16 138 75 7 43 30 59 84 59 28 0 28 -2 24 -42 -5
-51 20 -98 69 -128 28 -16 35 -17 62 -6 19 8 40 10 52 5 38 -14 82 -134 109
-299 5 -35 18 -149 30 -280 20 -215 53 -295 53 -127 0 45 -4 98 -9 117 -5 19
-11 84 -13 143 -3 60 -12 132 -20 160 -8 29 -17 75 -21 102 -11 88 -37 165
-67 197 -25 27 -32 30 -66 23 -79 -16 -111 -2 -131 56 -8 24 -7 31 11 43 29
20 17 43 -31 57 -22 7 -38 16 -35 20 2 4 18 3 35 -3 18 -6 34 -7 38 -2 20 28
49 33 87 14 21 -11 39 -27 40 -36 4 -25 34 -52 66 -59 31 -7 51 -40 61 -100 3
-16 12 -48 20 -70 9 -22 21 -92 28 -155 6 -63 13 -128 15 -145 1 -16 6 -69 9
-117 3 -48 10 -111 15 -139 6 -29 7 -67 4 -85 -4 -20 -1 -34 6 -39 24 -15 31
20 25 110 -4 50 -8 155 -9 235 -3 153 -6 183 -40 385 -19 107 -19 105 -6 105
14 0 58 -90 69 -142 6 -24 13 -104 16 -178 3 -74 8 -148 11 -163 11 -53 11
-77 2 -83 -6 -4 -7 -31 -2 -68 4 -33 6 -78 5 -98 -2 -38 15 -85 27 -74 5 6 4
424 -2 481 -16 151 -35 240 -68 317 -24 57 -55 72 -130 64 -69 -9 -84 2 -87
62 -1 7 -5 11 -9 8 -10 -6 -72 30 -72 43 0 12 51 21 121 21 50 0 59 3 59 18 0
10 -5 23 -11 29 -9 9 1 11 41 9 59 -4 63 -8 86 -83 8 -29 24 -63 35 -75 l20
-23 -6 35 c-17 95 -18 100 -5 100 6 0 25 -9 41 -21 22 -15 41 -20 69 -17 47 4
59 -13 35 -49 -13 -20 -23 -24 -53 -21 -32 3 -39 -1 -51 -26 -15 -33 -18 -98
-7 -201 4 -38 9 -117 11 -175 3 -58 7 -132 9 -165 2 -33 5 -114 7 -180 3 -121
11 -161 31 -149 7 4 8 32 3 83 -4 42 -8 130 -9 196 -1 66 -6 158 -10 205 -10
112 -14 281 -7 333 6 38 9 42 36 43 17 1 32 2 35 3 3 1 19 21 35 46 50 74 57
68 49 -38 -3 -50 -8 -95 -10 -98 -2 -3 -6 -46 -10 -95 -3 -49 -9 -93 -12 -98
-2 -5 -6 -136 -8 -292 -2 -259 2 -312 22 -291 4 4 14 265 20 547 2 130 4 155
18 229 4 19 9 63 11 98 3 35 10 74 17 86 l13 22 3 -24 c2 -12 1 -35 -3 -50 -8
-31 -17 -160 -20 -286 -1 -49 -3 -92 -4 -95 -6 -14 -10 -55 -17 -169 -9 -159
-9 -211 1 -286 5 -33 9 -63 9 -67 2 -16 17 -20 31 -8 12 10 13 16 4 27 -19 22
-13 300 12 633 6 80 12 172 13 205 3 73 4 75 15 75 5 0 8 -11 5 -25 -3 -18 0
-25 12 -25 10 0 14 5 10 15 -7 19 -1 19 30 -2 l25 -16 -7 -151 c-4 -83 -8
-275 -9 -426 -2 -151 -5 -289 -8 -305 -6 -39 10 -82 24 -68 12 12 15 83 24
548 3 165 7 328 9 362 2 60 14 92 23 66 7 -20 20 -15 26 9 5 19 8 20 23 7 16
-13 17 -12 12 9 -4 12 -2 20 2 17 13 -8 28 -98 34 -205 4 -52 10 -117 14 -145
4 -27 6 -68 4 -90 -6 -55 -9 -517 -4 -532 2 -7 10 -13 18 -13 16 0 18 8 14 70
-8 112 0 420 10 420 3 0 7 -66 8 -147 5 -242 10 -334 16 -340 10 -10 27 12 26
33 -5 127 -10 196 -15 204 -4 6 -3 59 1 118 11 175 5 399 -15 562 -5 36 -7 67
-5 69 2 2 4 -1 4 -8 0 -8 5 -9 19 -2 10 6 21 7 25 4 14 -15 59 -8 64 9 8 32
29 18 23 -16 -1 -5 5 -6 13 -3 8 3 19 0 25 -7 7 -8 26 -11 55 -9 24 3 47 0 50
-6 4 -5 -3 -36 -15 -68 -21 -56 -53 -182 -65 -253 -3 -19 -16 -93 -29 -165
-13 -71 -26 -153 -30 -181 -11 -89 -13 -264 -3 -270 14 -9 15 -6 22 91 4 50 8
105 11 123 19 146 29 209 46 291 24 117 26 126 40 181 6 25 12 50 13 55 6 24
28 103 37 133 7 21 17 32 29 32 11 0 22 11 28 29 6 16 26 55 46 85 20 31 41
76 47 101 6 25 15 45 19 45 5 0 27 16 51 36 39 33 44 34 50 17 4 -11 7 -45 8
-76 0 -47 -3 -57 -17 -57 -25 -1 -66 -35 -58 -49 4 -7 16 -9 27 -6 33 11 55
-4 79 -51 12 -26 31 -49 41 -51 27 -7 23 -20 -11 -38 -44 -23 -90 -21 -142 5
-30 15 -55 20 -71 16 -28 -7 -66 -54 -89 -111 -8 -22 -30 -74 -47 -116 -18
-42 -36 -103 -41 -135 -5 -33 -16 -81 -24 -108 -9 -26 -20 -87 -26 -135 -6
-47 -12 -104 -15 -126 -3 -22 -7 -83 -10 -136 -3 -53 -9 -110 -13 -125 -11
-41 -9 -67 5 -71 21 -7 31 37 38 163 12 215 21 295 42 367 8 29 16 68 17 87 3
32 10 61 38 145 5 17 18 59 30 95 11 37 29 77 39 90 l20 25 -7 -30 c-4 -16
-16 -50 -26 -75 -11 -25 -35 -128 -54 -230 -19 -102 -36 -196 -39 -210 -12
-64 -21 -249 -16 -325 2 -19 2 -19 15 -2 9 11 12 33 9 60 -3 24 3 81 12 127
10 47 18 112 18 145 -1 33 3 68 8 77 5 10 11 47 14 82 5 81 27 166 71 283 39
103 66 143 96 143 17 0 19 -4 13 -27 -3 -15 -15 -39 -26 -54 -47 -66 -100
-224 -114 -338 -3 -24 -12 -69 -19 -100 -8 -31 -18 -78 -22 -106 -7 -47 -8
-60 -3 -110 1 -11 -3 -38 -8 -60 -9 -38 0 -95 13 -83 3 3 7 41 10 84 4 64 32
264 50 359 2 11 6 34 9 50 3 17 24 81 47 143 44 119 86 181 151 220 40 24 87
36 87 22 0 -5 -6 -10 -14 -10 -8 0 -18 -5 -22 -12 -5 -8 0 -9 14 -6 28 8 38
-8 15 -21 -15 -9 -16 -12 -4 -20 11 -7 8 -10 -10 -16 -30 -9 -99 -54 -122 -80
-64 -73 -135 -292 -152 -465 -3 -36 -8 -81 -11 -100 -2 -19 -6 -62 -9 -95 -3
-33 -8 -77 -11 -97 -3 -23 -1 -38 6 -38 5 0 10 11 10 25 0 13 7 28 16 33 18
10 19 19 29 167 3 55 8 109 10 120 2 11 7 40 10 65 8 65 14 96 26 127 6 16 9
28 8 28 -5 0 24 82 48 137 14 32 30 58 34 58 5 0 26 16 48 35 46 42 78 46 204
26 81 -13 93 -13 137 3 46 17 53 17 98 2 123 -41 297 34 384 165 44 66 103
248 115 349 12 105 3 154 -31 181 -21 16 -27 29 -25 53 4 48 -10 96 -46 157
-18 31 -36 66 -39 77 -4 11 -13 23 -22 26 -13 5 -13 9 0 34 14 27 30 92 25
102 -1 3 3 15 10 27 9 18 17 21 39 17 35 -7 46 6 65 77 14 56 14 56 -14 94
-16 21 -29 42 -29 45 0 12 76 30 124 30 42 0 51 4 81 38 35 37 35 37 35 133 0
92 -1 97 -25 113 -14 9 -44 35 -68 59 -56 54 -241 139 -454 208 -87 28 -193
64 -235 80 -43 16 -94 29 -115 29 -21 0 -72 9 -113 19 -41 11 -102 26 -135 35
-60 15 -135 24 -253 32 -34 2 -81 8 -103 14 -22 6 -118 13 -212 15 -95 2 -198
6 -229 8 -32 3 -59 3 -60 1z m417 -66 c28 -6 86 -12 130 -13 44 -1 94 -5 110
-8 17 -4 39 -9 50 -11 11 -3 40 -9 65 -15 25 -5 59 -12 75 -15 17 -3 39 -8 50
-10 11 -2 40 -7 65 -11 67 -11 70 -12 135 -29 66 -19 62 -17 125 -35 25 -7 54
-15 66 -17 11 -2 68 -20 125 -40 57 -20 145 -48 195 -63 50 -16 118 -44 150
-64 33 -21 63 -37 68 -37 11 0 118 -79 128 -94 10 -15 10 -56 0 -56 -5 0 -32
22 -60 50 -101 97 -386 212 -772 309 -85 22 -172 42 -192 45 -21 3 -57 10 -80
15 -24 5 -59 12 -78 15 -19 3 -70 12 -114 21 -43 8 -108 17 -145 20 -290 19
-440 22 -676 11 -229 -11 -274 -14 -324 -21 -25 -4 -62 -8 -81 -11 -19 -2 -46
-6 -60 -9 -14 -2 -47 -7 -75 -10 -130 -15 -176 -22 -235 -40 -25 -8 -70 -16
-100 -19 -153 -14 -298 -57 -379 -112 -36 -25 -77 -48 -92 -51 -14 -3 -49 -23
-78 -44 -57 -44 -61 -45 -61 -25 0 8 17 28 38 43 20 15 42 33 47 39 6 5 48 28
95 49 47 21 120 55 162 76 42 21 99 41 125 44 69 9 105 15 112 20 4 2 26 6 51
10 25 4 47 8 50 10 3 1 28 6 55 9 28 4 113 18 190 32 82 16 185 27 250 29 61
1 121 7 135 13 33 14 687 14 755 0z m-210 -70 c28 0 75 1 105 1 55 1 83 -2
123 -15 12 -4 73 -7 137 -8 106 -1 263 -28 335 -56 11 -5 27 -9 35 -9 35 -1
142 -22 158 -30 30 -15 165 -50 222 -57 55 -6 90 -19 101 -36 3 -5 21 -12 40
-15 19 -3 46 -11 60 -19 15 -7 57 -25 95 -39 37 -14 75 -32 84 -39 8 -7 38
-19 65 -26 57 -15 139 -86 182 -158 l26 -43 -29 -30 c-37 -39 -55 -38 -47 2 5
28 0 36 -48 80 -29 27 -58 49 -63 49 -5 0 -48 20 -95 44 -47 24 -106 49 -131
55 -25 7 -81 27 -125 46 -72 30 -149 54 -445 140 -47 14 -101 25 -120 26 -19
1 -82 10 -140 21 -58 10 -130 21 -160 24 -30 2 -86 10 -125 16 -38 6 -126 13
-195 14 -69 1 -152 4 -185 5 -33 1 -96 0 -140 -4 -44 -4 -138 -9 -210 -12 -71
-3 -154 -8 -182 -10 -139 -13 -173 -16 -238 -26 -38 -6 -97 -19 -130 -29 -33
-10 -85 -22 -115 -25 -30 -3 -73 -8 -95 -12 -55 -8 -377 -136 -442 -175 -66
-40 -121 -97 -127 -132 -12 -64 -15 -67 -45 -51 -30 15 -41 33 -41 66 0 21 76
129 91 129 5 0 17 8 27 18 10 10 42 30 72 45 30 15 88 45 128 66 40 21 94 42
120 46 26 4 61 13 77 20 40 18 61 23 120 30 28 4 75 14 105 22 30 9 78 17 105
18 28 1 66 6 85 13 19 6 58 11 85 10 55 -2 122 6 205 23 30 6 109 13 175 15
66 2 140 8 165 13 25 5 101 6 170 3 69 -3 148 -5 175 -4z m-161 -94 c9 -3 14
-10 11 -14 -3 -5 -1 -11 4 -15 6 -3 15 4 21 15 9 17 14 19 26 9 7 -6 25 -9 38
-7 17 3 27 0 31 -11 6 -14 8 -14 20 3 10 13 20 16 32 11 10 -5 26 -7 36 -6 10
1 25 -3 34 -10 13 -11 17 -10 29 6 12 17 14 17 14 2 0 -9 7 -17 15 -17 8 0 15
5 15 11 0 6 8 9 18 7 9 -2 17 -10 17 -17 0 -8 6 -16 13 -18 6 -3 12 2 12 11 0
9 7 16 15 16 8 0 15 -7 15 -15 0 -19 14 -19 30 0 15 18 30 10 30 -17 0 -17 2
-18 15 -8 21 18 95 20 95 3 0 -18 19 -16 26 2 6 14 8 13 20 -2 10 -14 15 -15
25 -6 10 10 15 9 26 -5 11 -12 16 -14 19 -4 9 20 34 14 34 -8 0 -26 12 -25 28
1 13 20 25 19 28 -2 1 -5 2 -13 3 -19 2 -16 21 -12 21 5 0 23 28 18 32 -5 4
-28 21 -27 30 2 l6 23 7 -23 c6 -17 13 -21 27 -16 10 3 25 0 33 -6 8 -6 19 -9
24 -6 5 4 14 -1 19 -10 7 -13 13 -14 31 -5 18 10 21 9 21 -9 0 -24 8 -25 31
-4 17 16 19 15 30 -12 10 -23 13 -25 16 -11 6 23 23 22 23 -3 0 -11 7 -20 15
-20 8 0 15 5 15 10 0 6 5 10 11 10 5 0 8 -4 4 -9 -3 -5 -1 -12 4 -15 5 -4 12
-2 16 4 4 6 11 8 16 4 5 -3 7 -10 4 -15 -4 -5 1 -9 9 -9 9 0 16 5 16 10 0 6 7
10 15 10 9 0 12 -6 9 -15 -7 -17 11 -21 21 -5 12 19 25 10 25 -17 0 -25 0 -26
20 -8 11 10 21 15 21 12 1 -4 2 -13 3 -19 1 -7 10 -12 20 -10 10 2 23 -4 30
-13 11 -15 13 -15 25 -1 16 19 33 21 30 4 -4 -36 1 -41 21 -23 19 17 26 12 21
-17 -2 -13 27 -9 31 4 3 7 13 -2 23 -20 21 -35 39 -41 49 -16 3 8 10 12 16 9
6 -4 8 -10 6 -14 -3 -4 -1 -13 4 -21 7 -11 11 -11 24 -1 20 17 41 5 25 -15
-12 -14 -7 -18 23 -15 12 2 16 -3 12 -13 -7 -18 7 -21 23 -5 7 7 13 7 17 1 3
-5 -12 -22 -33 -36 -27 -19 -37 -33 -34 -46 3 -10 0 -27 -6 -38 -10 -19 -14
-18 -103 29 -50 27 -96 53 -102 59 -5 5 -21 10 -33 10 -13 0 -72 20 -132 44
-105 44 -310 110 -374 121 -17 4 -49 10 -69 14 -21 5 -38 7 -38 5 0 -3 -12 2
-27 9 -32 16 -184 41 -323 52 -25 3 -72 7 -105 11 -33 4 -73 8 -90 10 -236 26
-670 25 -885 -2 -144 -17 -387 -63 -480 -90 -148 -43 -316 -114 -408 -171 -20
-12 -23 -12 -28 4 -3 10 -14 39 -24 66 -16 39 -16 47 -4 47 8 0 14 9 14 21 0
18 2 19 15 9 17 -14 30 -7 30 18 0 11 7 16 20 15 11 -1 22 3 26 8 3 5 23 11
45 13 29 3 38 8 36 20 -2 13 2 15 21 11 15 -4 28 -1 36 9 7 9 18 13 24 9 5 -3
16 2 24 13 12 16 15 17 24 4 8 -11 12 -12 16 -2 2 6 13 12 24 12 10 0 19 4 19
10 0 5 7 7 15 4 8 -4 22 -1 30 6 8 6 23 9 35 5 11 -4 20 -3 19 2 -3 20 2 27
11 13 9 -13 12 -13 24 3 13 17 14 17 21 0 6 -16 8 -16 18 5 11 25 27 28 45 10
10 -10 15 -10 22 2 9 13 11 13 20 0 8 -13 11 -11 16 8 7 25 44 31 44 7 0 -8 5
-15 10 -15 6 0 10 7 10 15 0 11 9 15 28 13 15 -1 37 4 50 11 20 11 27 10 43
-5 18 -16 19 -16 19 4 0 13 6 22 15 22 8 0 15 -4 15 -10 0 -19 22 -10 27 10 6
22 28 22 28 0 0 -23 22 -22 29 2 5 19 8 20 16 8 8 -13 13 -13 31 -1 20 11 24
11 34 -2 10 -14 14 -14 33 6 19 19 22 19 22 4 0 -21 13 -22 31 -1 11 14 13 14
21 -1 8 -14 11 -14 30 0 16 11 25 12 35 3 10 -8 17 -6 28 8 13 17 14 18 15 2
0 -19 30 -26 30 -7 0 6 9 8 20 4 12 -4 27 -1 35 5 12 10 16 9 20 -3 5 -12 11
-12 43 -1 45 16 72 17 72 4 0 -5 5 -10 10 -10 6 0 10 7 10 15 0 17 2 18 24 9z
m191 -198 c33 -3 94 -8 135 -12 41 -3 86 -8 100 -9 14 -2 50 -6 80 -9 30 -3
66 -8 80 -11 14 -2 41 -7 60 -10 29 -5 161 -29 222 -40 10 -2 62 -16 115 -31
54 -15 106 -27 115 -26 9 0 22 -6 29 -14 6 -8 16 -14 21 -14 5 0 74 -23 151
-51 236 -86 373 -160 425 -230 13 -17 -2 -89 -18 -89 -4 0 -15 -3 -24 -6 -11
-4 -19 2 -25 19 -27 71 -230 168 -581 278 -96 30 -234 67 -280 75 -14 3 -33 7
-42 10 -10 3 -30 7 -45 10 -16 2 -50 9 -78 14 -65 12 -121 19 -224 25 -46 3
-87 7 -91 10 -19 12 -119 16 -400 15 -168 0 -323 -2 -345 -4 -109 -9 -200 -18
-214 -21 -9 -2 -36 -8 -61 -14 -25 -5 -72 -12 -105 -15 -133 -13 -164 -18
-313 -56 -162 -42 -280 -93 -361 -157 -3 -2 -7 -22 -10 -44 -5 -36 -8 -39 -24
-27 -40 30 -25 107 27 141 122 80 342 175 443 190 17 3 35 7 40 10 4 3 24 8
43 11 19 3 46 8 60 11 25 5 43 8 140 25 30 5 69 12 85 15 17 3 57 8 90 11 33
3 66 7 73 10 8 2 59 7 115 10 56 3 103 7 105 9 5 4 425 -3 487 -9z m-60 -130
c105 -4 195 -11 200 -16 6 -4 30 -7 55 -6 25 2 56 -1 70 -6 14 -5 48 -12 75
-14 28 -2 77 -9 110 -15 33 -6 71 -12 85 -14 14 -2 66 -13 115 -24 50 -11 106
-23 125 -26 19 -3 46 -13 59 -22 13 -8 67 -26 119 -39 52 -13 104 -30 116 -37
12 -8 37 -18 56 -22 54 -12 241 -110 277 -145 27 -26 30 -35 23 -58 -5 -15
-10 -33 -12 -40 -2 -8 -21 0 -56 24 -77 52 -193 107 -307 147 -135 47 -408
124 -505 141 -31 5 -138 25 -165 30 -20 4 -50 8 -195 26 -75 9 -166 17 -290
25 -91 6 -399 7 -408 1 -5 -3 -51 -6 -103 -7 -51 -1 -106 -5 -121 -10 -15 -4
-55 -10 -90 -14 -35 -3 -74 -8 -88 -10 -14 -3 -45 -7 -70 -10 -25 -3 -70 -10
-100 -15 -30 -5 -71 -12 -90 -15 -142 -24 -411 -105 -438 -132 -20 -20 -32
-16 -32 11 0 28 45 66 98 84 18 6 45 20 59 32 14 11 31 20 39 20 7 0 59 16
115 35 57 19 122 35 145 35 23 0 60 6 82 14 43 16 56 18 202 40 121 19 166 24
265 32 44 3 81 7 82 8 4 3 323 -2 498 -8z m-1689 -57 c11 -18 17 -89 7 -89
-10 0 -73 38 -73 44 0 3 4 16 10 30 10 27 43 35 56 15z m1654 -74 c143 -5 232
-10 300 -20 19 -2 55 -7 80 -10 112 -15 236 -40 335 -70 44 -13 100 -26 126
-30 52 -7 118 -27 277 -83 167 -60 301 -127 349 -174 l41 -40 -20 -34 c-19
-33 -20 -33 -49 -19 -15 8 -45 19 -65 23 -28 6 -41 16 -55 42 -17 32 -35 41
-240 123 -122 49 -241 91 -263 93 -62 6 -95 12 -161 29 -55 15 -213 49 -275
60 -70 12 -124 18 -210 21 -52 3 -144 7 -205 9 -60 3 -141 7 -180 8 -38 2 -88
-1 -110 -6 -22 -5 -44 -9 -50 -9 -84 4 -151 1 -200 -10 -56 -13 -71 -13 -159
7 -29 6 -73 -14 -89 -42 -4 -7 -22 -13 -40 -13 -43 0 -191 -26 -247 -44 -25
-8 -70 -19 -100 -24 -30 -6 -107 -30 -170 -55 l-115 -45 -17 27 c-29 43 -23
57 37 86 30 15 55 31 55 35 0 21 392 106 575 125 33 4 89 11 125 17 89 14 151
20 248 22 45 2 85 6 89 10 4 3 59 4 122 1 64 -3 181 -7 261 -10z m1720 -20 c0
-9 -7 -18 -15 -21 -8 -4 -12 -10 -9 -15 7 -12 -22 -23 -41 -15 -13 5 -14 10
-4 28 7 13 17 26 23 30 19 13 46 9 46 -7z m-1864 -101 c5 13 9 14 20 5 8 -6
20 -9 27 -6 8 3 20 1 27 -3 8 -5 19 -6 25 -2 14 10 65 9 65 -1 0 -5 9 -5 21
-2 21 7 21 6 -2 -25 -24 -31 -77 -70 -97 -70 -12 0 -142 79 -142 87 0 2 6 10
13 18 10 12 14 11 24 -2 11 -15 13 -15 19 1z m-530 -25 c3 -5 6 -23 6 -41 1
-40 -23 -58 -79 -58 -47 0 -59 14 -58 68 0 37 54 65 96 50 16 -5 32 -14 35
-19z m353 17 c10 -11 8 -16 -7 -20 -11 -4 -29 -28 -41 -56 -20 -47 -22 -49
-48 -39 -41 15 -70 3 -98 -41 -32 -50 -57 -52 -109 -7 -33 29 -37 37 -28 54 6
11 13 33 16 48 5 29 21 45 44 45 6 0 12 -4 12 -10 0 -5 6 -10 14 -10 9 0 12 7
9 20 -5 19 -3 20 21 8 23 -10 29 -9 36 2 7 12 10 11 16 -4 7 -18 8 -18 21 0
11 15 17 16 33 6 13 -8 21 -8 26 -1 3 6 12 8 18 6 7 -3 19 -1 27 4 19 12 25
11 38 -5z m523 -11 c21 0 38 -3 38 -6 0 -9 52 -5 68 4 7 5 12 4 12 -2 0 -6 9
-11 19 -11 11 0 22 -6 24 -12 4 -10 8 -9 16 2 8 11 13 12 19 3 5 -8 13 -9 22
-3 22 14 30 12 30 -6 0 -14 2 -14 16 -3 13 11 17 10 26 -5 9 -17 10 -17 24 1
12 17 13 17 14 1 0 -20 15 -24 26 -6 5 7 10 3 16 -13 9 -23 10 -23 23 -5 14
19 15 18 23 -3 7 -20 9 -21 21 -7 14 16 36 12 26 -5 -4 -5 0 -9 9 -9 8 0 17 6
20 13 3 8 9 7 20 -7 13 -16 18 -17 31 -6 14 12 20 7 16 -14 -1 -5 6 -6 15 -2
10 4 22 -1 30 -11 8 -11 13 -13 14 -5 0 21 20 13 20 -9 0 -18 2 -20 16 -8 12
10 17 10 23 1 4 -7 15 -10 24 -6 10 3 17 1 17 -5 0 -6 11 -11 25 -11 14 0 25
-5 25 -11 0 -6 8 -8 19 -4 10 3 24 -1 31 -10 11 -13 15 -13 21 -3 7 10 9 8 9
-5 0 -14 5 -17 20 -12 14 5 20 2 20 -9 0 -18 15 -21 25 -6 8 13 25 13 25 0 0
-5 -17 -20 -38 -34 -28 -18 -51 -23 -92 -23 -69 1 -108 -18 -139 -66 l-24 -37
-22 20 c-12 11 -29 20 -38 20 -9 0 -17 5 -17 10 0 6 5 9 11 8 17 -4 20 32 3
39 -12 4 -12 8 3 19 14 11 15 13 3 14 -8 0 -36 23 -61 52 -40 45 -50 52 -82
51 -41 -1 -97 -36 -98 -61 0 -9 -11 6 -23 34 -41 89 -121 131 -189 99 -34 -16
-48 -35 -65 -90 -5 -16 -16 -31 -25 -33 -13 -3 -17 4 -17 33 0 48 -24 98 -66
138 -35 32 -48 61 -16 36 9 -8 34 -14 54 -14z m-435 -7 c13 -19 41 -115 49
-173 3 -27 8 -59 10 -70 11 -57 4 -291 -12 -387 -4 -28 0 -31 61 -40 16 -3 21
-12 23 -51 3 -42 -1 -51 -27 -78 -26 -25 -34 -28 -51 -19 -11 6 -26 25 -34 43
l-14 32 -9 -25 c-6 -14 -13 -50 -16 -80 -4 -30 -11 -68 -17 -85 -5 -16 -14
-57 -18 -90 l-7 -60 -47 -6 c-26 -4 -51 -10 -56 -13 -5 -3 -20 6 -32 19 -13
14 -32 25 -43 25 -19 0 -20 1 -2 20 10 11 22 20 28 20 15 0 66 40 77 61 15 28
-10 25 -45 -5 -34 -30 -75 -38 -185 -40 -76 -1 -90 2 -138 29 -29 16 -58 37
-63 47 -9 17 -7 17 33 -3 148 -76 406 20 488 181 34 67 50 130 50 200 0 36 4
71 9 79 6 9 5 24 0 39 -5 14 -12 55 -14 91 -11 137 -17 168 -46 229 -31 66
-30 89 9 111 23 14 28 13 39 -1z m346 -15 c23 -16 23 -17 5 -67 -9 -28 -17
-61 -18 -73 0 -12 -7 -43 -16 -68 -22 -68 -20 -205 6 -277 11 -32 20 -71 20
-87 0 -39 34 -131 76 -200 88 -150 173 -201 322 -192 15 1 22 7 22 20 0 14 5
18 20 14 28 -7 32 -17 19 -47 -16 -34 -70 -58 -129 -58 -50 1 -92 18 -146 58
-36 28 -44 29 -44 10 0 -7 16 -27 36 -44 38 -33 38 -52 0 -52 -13 0 -39 -6
-57 -14 -29 -12 -39 -12 -71 1 -44 17 -43 14 -23 90 19 73 19 136 0 173 -9 17
-18 30 -21 30 -2 0 -22 -9 -44 -20 -69 -35 -110 -18 -110 45 0 70 30 106 60
70 9 -11 17 -12 31 -4 21 11 21 15 -6 119 -34 130 -20 447 25 566 11 29 15 29
43 7z m-953 -66 l19 -35 -43 -39 c-46 -41 -70 -78 -62 -92 3 -5 -1 -12 -9 -15
-9 -3 -31 8 -54 29 -21 19 -44 35 -51 35 -7 0 -27 9 -45 20 -27 17 -51 20
-148 21 -64 0 -122 -3 -129 -7 -10 -5 -10 -4 -2 5 7 7 29 15 50 18 22 3 44 9
51 15 7 5 17 7 23 3 6 -4 20 1 30 10 12 11 20 13 25 6 9 -16 25 -13 25 4 0 9
6 12 15 9 8 -4 21 -1 29 5 7 6 21 8 31 5 10 -4 21 -1 26 7 8 12 11 12 19 -1 9
-13 12 -13 20 2 6 9 18 14 29 11 10 -3 22 0 26 7 5 8 10 8 21 -1 11 -9 15 -8
19 4 4 9 17 14 36 12 23 -2 34 -10 49 -38z m736 -15 l31 -27 -3 -258 c-1 -143
-5 -261 -8 -264 -10 -10 -66 22 -66 38 0 9 11 27 25 41 17 17 23 33 20 54 -2
16 -6 58 -10 94 -7 74 -10 98 -31 227 -8 51 -14 100 -14 108 0 23 22 18 56
-13z m129 9 c-3 -10 -8 -36 -10 -57 -3 -22 -7 -50 -10 -64 -2 -14 -7 -63 -10
-110 -4 -47 -11 -116 -16 -155 -8 -63 -7 -72 11 -86 11 -9 22 -35 26 -57 6
-36 4 -41 -12 -40 -11 0 -26 -2 -35 -6 -14 -6 -15 22 -14 264 l2 271 28 29
c33 34 49 39 40 11z m149 10 c6 -10 -22 -37 -29 -29 -8 7 5 38 15 38 5 0 11
-4 14 -9z m222 -44 c-51 -68 -71 -216 -45 -339 12 -54 64 -174 81 -184 5 -4 5
-11 -1 -18 -26 -31 82 -124 168 -146 77 -19 89 -43 46 -85 -17 -18 -35 -25
-64 -25 -43 0 -55 12 -131 127 -19 29 -39 51 -45 49 -5 -1 -14 -17 -19 -35
-11 -37 -56 -66 -90 -57 -33 8 -60 65 -52 108 6 33 21 48 48 48 6 0 8 -7 4
-15 -4 -12 -2 -13 13 -6 37 20 39 59 11 187 -22 100 -26 184 -9 201 7 7 9 19
5 28 -9 26 -32 2 -41 -41 -8 -47 -46 -84 -84 -84 -36 0 -50 21 -58 90 -8 73
13 102 73 99 52 -3 73 13 107 82 18 35 28 44 51 46 15 1 31 4 34 7 2 3 9 3 13
0 5 -3 -2 -20 -15 -37z m-693 -55 c39 -157 51 -296 34 -412 -22 -148 -132
-283 -252 -310 -75 -17 -45 39 35 65 64 21 154 109 176 173 25 71 28 223 5
299 -10 33 -17 79 -15 102 3 28 -3 59 -17 91 -11 27 -18 53 -15 59 14 23 33
-3 49 -67z m-424 48 c18 -5 57 -27 85 -50 29 -22 63 -40 75 -40 13 0 40 19 65
45 42 43 66 52 101 39 23 -9 45 -57 45 -98 0 -76 -36 -106 -115 -99 -47 5 -81
24 -113 64 -24 30 -52 39 -52 16 0 -7 15 -28 34 -46 22 -21 37 -47 41 -70 17
-98 82 -168 121 -129 20 20 79 9 99 -19 31 -39 10 -147 -34 -180 -57 -44 -143
23 -187 146 -25 72 -74 171 -84 171 -9 0 14 -90 31 -121 21 -41 27 -180 10
-253 -6 -23 -6 -48 0 -63 5 -13 9 -36 9 -50 0 -24 -1 -25 -52 -18 -28 4 -74
15 -102 25 -49 16 -51 18 -54 58 -3 33 3 49 32 89 59 82 104 223 71 223 -14 0
-14 3 1 33 10 17 19 64 21 102 6 105 -30 163 -122 199 -5 2 -1 11 10 20 24 19
22 18 64 6z m1208 -58 c6 -21 6 -47 2 -57 -4 -11 -8 -15 -9 -10 -9 65 -12 69
-38 61 -25 -8 -33 -39 -37 -139 -5 -110 20 -168 89 -204 42 -22 87 -18 153 11
71 33 87 47 113 101 28 58 50 66 50 19 0 -19 7 -49 16 -67 16 -30 16 -33 -4
-72 -11 -22 -23 -58 -27 -80 -3 -22 -7 -47 -9 -55 -2 -8 0 -23 5 -32 11 -20
-40 -67 -74 -69 -12 -1 -35 -3 -52 -5 -44 -5 -126 21 -158 52 -41 38 -27 40
34 5 90 -49 129 -46 164 12 29 51 30 60 9 81 -11 11 -35 16 -80 16 -79 0 -119
16 -177 69 -60 55 -90 126 -93 217 -3 86 9 131 49 179 27 34 31 35 47 20 10
-9 22 -33 27 -53z m-291 35 c1 -10 -7 -22 -18 -28 -18 -10 -20 -9 -15 6 4 9 7
23 7 32 0 20 23 11 26 -10z m483 -26 c60 -60 63 -135 10 -203 -39 -49 -73 -66
-125 -64 -48 2 -87 29 -109 73 -29 59 -13 117 22 82 18 -18 64 11 92 59 23 38
60 71 84 72 4 0 16 -9 26 -19z m-1442 -34 c47 -32 64 -72 57 -142 -5 -68 -22
-107 -65 -153 -35 -37 -71 -58 -114 -65 -66 -11 -85 -34 -85 -100 0 -41 9 -54
42 -62 50 -13 148 58 148 107 0 8 14 31 30 49 l30 34 -15 -44 c-15 -45 -47
-102 -69 -124 -7 -6 -24 -30 -39 -51 -40 -60 -68 -59 -128 4 -63 66 -69 77
-57 112 7 19 7 42 0 69 -5 22 -8 49 -5 60 5 20 6 20 32 -5 21 -20 34 -24 68
-21 95 8 155 64 168 155 6 44 4 54 -22 90 -15 22 -43 45 -60 52 -37 14 -40 23
-16 50 20 23 52 18 100 -15z m-497 -2 c16 -8 38 -15 49 -15 12 0 48 -21 81
-46 l61 -46 -6 -48 c-4 -32 -1 -60 9 -84 20 -48 12 -46 -20 6 -15 23 -37 53
-50 67 -13 14 -24 29 -24 33 0 4 -15 15 -32 24 -18 9 -35 20 -38 25 -3 4 -32
10 -65 13 -124 10 -212 -50 -202 -137 3 -21 1 -54 -3 -73 -6 -24 -3 -48 9 -80
19 -50 32 -66 80 -105 27 -22 29 -28 15 -33 -15 -6 -14 -9 7 -32 35 -38 90
-63 156 -71 32 -4 62 -6 67 -4 6 1 20 -3 32 -9 18 -10 20 -17 14 -44 -9 -42
-38 -86 -56 -86 -16 0 -105 44 -171 85 -24 14 -43 21 -43 16 0 -37 -54 36 -81
109 -9 25 -27 68 -40 95 l-23 50 -4 -39 c-2 -26 5 -57 22 -95 47 -106 38 -161
-28 -161 -38 0 -72 28 -92 76 -21 49 -18 66 21 116 l35 45 3 144 c2 127 5 150
26 192 52 106 195 162 291 112z m187 -15 c60 -34 68 -44 49 -59 -10 -8 -23 -3
-56 22 -24 17 -57 40 -74 49 l-31 17 30 0 c17 1 53 -13 82 -29z m-487 -35 c-7
-8 -19 -15 -27 -15 -21 0 -71 -31 -78 -49 -10 -25 10 -33 30 -11 10 11 24 20
32 20 16 0 15 3 3 -40 -6 -19 -11 -67 -11 -107 0 -52 -4 -75 -16 -84 -13 -11
-18 -10 -34 10 -11 13 -19 30 -19 38 0 27 -22 8 -38 -32 -26 -68 -24 -139 5
-182 14 -20 28 -57 32 -83 13 -83 59 -135 136 -154 26 -7 59 -32 158 -121 30
-26 79 -37 177 -38 106 -1 159 14 232 64 35 25 88 107 88 136 0 27 15 30 29 5
13 -24 -16 -87 -62 -139 -39 -42 -115 -84 -188 -101 -63 -16 -183 -7 -253 17
-55 19 -61 20 -83 6 -13 -9 -46 -19 -73 -22 -47 -5 -49 -5 -65 28 -10 19 -24
42 -33 51 -13 16 -12 20 18 48 39 36 35 63 -8 54 -25 -5 -33 -1 -55 28 -39 51
-88 161 -92 210 -3 24 -7 60 -11 81 -3 21 -2 43 4 50 5 7 10 40 10 74 0 46 7
73 26 110 14 26 26 55 26 64 0 31 93 97 139 99 11 0 11 -3 1 -15z m2757 -4
c28 10 72 2 92 -18 14 -14 14 -19 -5 -184 -4 -42 -2 -64 10 -87 20 -40 20 -42
-5 -42 -53 0 -87 36 -130 138 -17 43 -37 85 -45 96 -9 13 -10 26 -3 45 15 37
41 63 52 52 6 -6 19 -6 34 0z m-2050 -18 c3 -7 -3 -9 -17 -6 -29 8 -37 25 -9
21 12 -1 24 -8 26 -15z m-33 -32 c51 -30 54 -31 80 -31 19 0 12 -62 -11 -96
-30 -47 -103 -68 -164 -49 -51 16 -67 138 -24 180 31 32 56 31 119 -4z m1931
15 c0 0 18 -36 40 -80 22 -43 41 -89 42 -101 3 -34 29 -80 58 -103 33 -26 16
-37 -29 -18 -28 12 -42 29 -70 83 -19 38 -41 75 -50 82 -9 8 -16 19 -16 25 0
7 -5 17 -12 24 -14 14 -38 2 -91 -44 -43 -39 -53 -42 -62 -14 -14 45 60 137
122 151 22 5 68 2 68 -5z m-2333 -43 c69 -40 89 -111 53 -187 -16 -34 -51 -61
-60 -47 -3 5 -18 6 -33 2 -55 -16 -91 14 -119 103 l-20 60 23 40 c13 22 31 44
41 47 27 11 81 2 115 -18z m2700 -14 c67 -34 90 -60 154 -174 11 -19 19 -59
21 -110 2 -44 6 -91 9 -105 5 -23 7 -24 18 -7 28 38 42 5 38 -93 -3 -84 -43
-215 -94 -308 -54 -98 -77 -123 -148 -161 -63 -34 -104 -43 -131 -30 -9 5 -30
3 -48 -4 -24 -9 -33 -9 -43 1 -9 9 -6 12 14 12 15 0 30 5 33 11 4 5 12 8 18 6
7 -2 24 2 38 9 15 7 41 16 59 19 105 19 169 92 209 241 37 139 36 142 -32 55
-51 -66 -79 -116 -71 -124 3 -3 1 -21 -5 -40 -9 -25 -22 -39 -49 -50 -83 -36
-103 -17 -51 49 39 49 18 60 -31 16 -42 -39 -103 -50 -265 -50 -159 -1 -218
15 -252 67 -13 19 -23 38 -23 42 0 8 74 -16 95 -31 9 -7 50 -18 92 -26 16 -3
27 13 14 20 -5 3 -26 8 -47 12 -50 7 -115 38 -143 68 -12 13 -25 41 -28 62
l-6 39 51 -51 c35 -36 61 -53 87 -58 20 -4 39 -5 41 -3 3 2 -25 23 -61 46 -72
45 -98 86 -89 137 7 40 33 67 51 53 7 -6 13 -17 13 -23 0 -33 25 -91 53 -123
43 -49 114 -93 152 -93 16 0 45 -4 63 -9 22 -7 43 -6 60 0 21 8 31 6 53 -11
32 -23 56 -25 112 -8 70 21 127 94 141 180 3 18 14 59 25 92 39 111 37 226 -4
280 -21 27 -26 17 -28 -55 -2 -49 -11 -83 -40 -145 -20 -45 -37 -86 -37 -92 0
-5 11 -17 25 -26 58 -38 12 -141 -92 -203 -32 -18 -46 -22 -60 -14 -28 15 -53
49 -53 71 0 27 25 85 50 117 11 14 17 30 14 35 -12 19 -68 -2 -152 -57 -47
-30 -90 -55 -96 -55 -6 0 -19 -9 -29 -20 -17 -20 -18 -20 -42 -3 -53 39 -40
70 50 112 36 17 65 36 65 42 0 7 -7 8 -17 4 -10 -4 -29 -10 -42 -13 -14 -3
-40 -16 -59 -29 -19 -12 -40 -23 -46 -22 -6 0 -23 24 -38 54 -20 40 -23 56
-14 64 12 10 235 9 252 -2 13 -7 114 23 114 35 0 10 -31 17 -96 22 -29 2 -65
11 -82 20 -17 9 -36 16 -42 16 -21 0 -100 63 -120 96 -20 32 -26 64 -12 64 4
0 25 -23 45 -50 21 -28 41 -48 46 -46 4 3 24 -6 44 -19 19 -14 50 -27 69 -29
18 -2 60 -11 93 -19 73 -17 152 -4 204 32 42 31 74 98 66 143 -7 40 -32 70
-98 120 -20 15 -14 48 9 48 8 0 33 -9 56 -21z m-1738 -21 c3 -17 6 -44 6 -60
0 -28 -2 -30 -27 -23 -16 4 -46 8 -68 9 -63 4 -64 4 -85 38 -23 39 -17 53 15
32 23 -15 25 -15 31 0 5 13 15 16 41 11 22 -3 35 -1 39 8 2 7 13 13 23 14 13
1 21 -7 25 -29z m1066 -15 c0 -9 -20 -35 -44 -58 -46 -45 -110 -68 -162 -59
-29 5 -93 58 -83 69 3 3 27 -4 53 -15 70 -32 138 -16 201 48 37 36 35 35 35
15z m-1883 -25 c50 -55 56 -98 15 -98 -15 0 -33 -5 -40 -12 -15 -15 -16 0 -2
38 6 15 8 35 4 43 -22 51 -11 65 23 29z m1280 -40 c2 -24 9 -63 14 -88 18 -73
22 -116 11 -105 -15 14 -43 130 -49 200 -4 47 -2 57 7 48 7 -6 14 -31 17 -55z
m130 39 c-3 -8 6 -56 19 -108 14 -51 22 -99 20 -106 -6 -14 -64 -18 -81 -5 -6
4 -10 20 -10 35 1 16 -6 32 -15 37 -13 9 -13 11 0 20 13 8 13 10 -2 10 -10 0
-18 5 -18 10 0 6 5 10 10 10 6 0 10 5 10 11 0 5 -4 7 -10 4 -5 -3 -10 -1 -10
4 0 6 5 11 10 11 6 0 10 4 10 10 0 5 -8 6 -17 3 -15 -6 -16 -4 -6 9 7 8 10 18
6 21 -3 4 8 10 26 13 17 4 34 11 37 15 8 14 27 10 21 -4z m752 -57 c29 -79 84
-144 135 -157 64 -18 130 -8 194 27 55 31 56 31 33 7 -46 -50 -157 -70 -246
-46 -122 33 -229 112 -220 161 5 24 51 68 71 68 6 0 21 -27 33 -60z m348 38
c39 -44 56 -99 34 -113 -6 -3 -8 4 -6 15 6 31 -15 70 -47 86 -16 8 -26 19 -23
24 9 15 20 12 42 -12z m-3141 -4 c-6 -17 -25 -125 -30 -174 -1 -14 1 -43 6
-65 31 -163 52 -217 111 -283 15 -15 21 -37 21 -72 1 -28 -2 -50 -6 -50 -4 0
-25 26 -47 58 -22 31 -50 71 -63 87 -30 37 -59 114 -55 143 2 12 11 28 21 35
14 10 16 19 8 52 -22 101 -3 285 29 285 6 0 8 -7 5 -16z m3123 -38 c13 -16 18
-72 8 -83 -15 -14 -37 22 -37 58 0 41 9 49 29 25z m-1339 -16 c0 -11 -4 -20
-9 -20 -5 0 -7 9 -4 20 3 11 7 20 9 20 2 0 4 -9 4 -20z m-1100 -60 c14 -8 19
-21 19 -58 0 -26 4 -67 10 -92 6 -25 11 -48 11 -52 0 -12 -113 -30 -158 -25
-63 7 -79 27 -21 27 64 0 81 15 70 63 -5 20 -7 46 -4 56 7 26 -9 32 -41 16
-41 -21 -123 -27 -162 -10 -45 19 -43 24 9 18 33 -4 60 3 127 31 91 38 111 42
140 26z m285 -44 c-23 -47 -81 -98 -108 -94 -18 2 -22 9 -20 37 2 43 8 48 73
65 30 8 56 19 58 26 2 6 6 9 9 6 3 -2 -3 -20 -12 -40z m-805 -5 c0 -16 -9 -39
-20 -52 l-20 -24 -19 25 c-13 16 -16 27 -9 31 6 4 8 12 4 18 -4 6 7 14 26 20
18 5 34 10 36 10 1 1 2 -12 2 -28z m2142 -26 c27 -8 71 -15 98 -16 55 -3 64
-9 55 -38 -19 -61 -155 -34 -199 40 -20 33 -18 34 46 14z m396 -35 c29 -22 60
-40 70 -40 9 0 24 -5 32 -10 10 -7 -6 -10 -55 -10 -38 0 -87 -4 -107 -9 -20
-5 -39 -7 -42 -4 -6 7 15 67 28 76 8 6 7 10 -3 14 -11 5 -11 7 0 14 20 12 19
13 77 -31z m-2143 -1 c7 -10 -25 -19 -50 -14 -11 2 -27 4 -35 5 -20 3 28 17
58 17 12 0 25 -3 27 -8z m1427 -35 c-12 -26 -18 -32 -20 -20 -2 10 4 26 14 37
25 27 26 24 6 -17z m1286 -34 c-5 -19 -11 -50 -15 -67 -6 -37 -14 -40 -37 -18
-13 14 -12 18 9 39 15 15 26 42 31 72 5 36 9 44 14 29 4 -11 3 -35 -2 -55z
m-1997 24 c10 -13 10 -17 -2 -25 -17 -11 -52 -12 -46 -1 2 4 7 15 10 25 8 21
21 22 38 1z m-846 -4 c3 -5 -1 -10 -10 -10 -9 0 -13 5 -10 10 3 6 8 10 10 10
2 0 7 -4 10 -10z m138 -1 c-8 -8 -19 -8 -40 -1 -28 10 -28 10 12 11 28 1 36
-2 28 -10z m-88 -29 c3 -5 -1 -10 -9 -10 -8 0 -18 5 -21 10 -3 6 1 10 9 10 8
0 18 -4 21 -10z m885 -2 c0 -28 -103 -79 -142 -70 -32 7 -6 32 48 48 30 8 54
20 54 25 0 5 9 9 20 9 11 0 20 -6 20 -12z m-599 -36 c-16 -30 -50 -55 -66 -49
-22 9 -18 20 18 44 40 27 61 30 48 5z m1469 -80 c39 -62 47 -82 33 -82 -5 0
-19 -3 -33 -5 -25 -6 -25 -6 -2 5 31 13 19 29 -29 36 -22 4 -49 14 -60 23 -20
16 -20 17 12 53 19 20 35 36 36 34 1 -1 21 -30 43 -64z m-1290 31 c0 -13 -3
-13 -15 -3 -8 7 -12 16 -9 21 8 13 24 1 24 -18z m751 -15 c0 -24 0 -93 0 -155
0 -62 4 -115 9 -118 6 -4 11 -3 11 2 1 4 3 17 5 28 2 11 6 67 10 125 4 58 8
106 9 108 1 1 9 0 18 -4 9 -3 22 -25 28 -48 6 -22 22 -69 36 -104 27 -67 24
-79 -16 -84 -13 -2 -37 -16 -53 -32 -25 -24 -34 -27 -66 -21 -22 4 -49 18 -65
36 -16 16 -42 32 -58 36 l-29 5 29 37 c39 50 49 72 62 133 10 49 41 98 61 98
4 0 8 -19 9 -42z m-929 5 c-20 -35 -89 -95 -97 -83 -4 7 14 31 46 60 54 50 69
56 51 23z m1768 7 c0 -14 -7 -20 -23 -20 -34 0 -41 12 -15 27 32 17 38 16 38
-7z m-1700 -17 c0 -25 -122 -139 -175 -163 -56 -26 -183 -38 -225 -22 -20 8
-13 10 40 11 36 0 78 4 95 7 55 10 126 57 178 118 29 34 56 64 61 68 13 9 26
0 26 -19z m1260 -19 c0 -7 -4 -16 -10 -19 -5 -3 -10 -4 -10 -1 0 2 -2 11 -5
19 -4 8 0 14 10 14 8 0 15 -6 15 -13z m-505 -65 c-19 -53 -54 -103 -55 -77 0
9 5 29 12 45 6 15 10 34 9 41 -1 6 3 12 9 12 7 0 7 7 -1 22 -10 18 -9 20 5 15
9 -4 16 -1 16 6 0 7 5 5 10 -4 7 -11 5 -31 -5 -60z m299 19 c-7 -107 -27 -132
-40 -50 -9 52 -7 71 8 90 24 28 36 13 32 -40z m-1519 1 c11 -12 40 -35 64 -51
l45 -28 -36 0 c-28 0 -136 45 -156 65 -2 2 4 15 13 29 19 28 35 25 70 -15z
m491 8 c-10 -41 -91 -123 -143 -144 -52 -22 -170 -43 -123 -21 118 53 140 67
200 128 36 37 67 65 69 64 2 -2 1 -14 -3 -27z m214 12 c27 -6 50 -15 50 -21 0
-6 -9 -8 -22 -3 -13 3 -42 11 -65 17 -43 10 -56 18 -28 18 7 0 37 -5 65 -11z
m-573 -49 c7 0 13 -4 13 -10 0 -5 -6 -10 -14 -10 -18 0 -78 42 -84 59 -3 8 12
2 34 -13 21 -14 44 -26 51 -26z m2469 8 c-3 -13 -6 -40 -6 -60 l0 -38 -62 0
c-43 0 -67 5 -80 17 -17 15 -15 17 35 42 28 14 61 34 71 43 28 26 50 23 42 -4z
m-2035 -85 c-10 -22 -34 -54 -53 -72 -54 -54 -174 -102 -248 -100 -19 1 -26 3
-15 5 82 17 120 34 191 80 78 51 114 88 114 117 0 7 6 19 13 26 21 21 20 -13
-2 -56z m119 -14 c15 -27 11 -30 -33 -22 -36 5 -37 7 -21 24 22 25 41 24 54
-2z m1250 -35 c0 -2 -12 -28 -27 -58 -26 -54 -43 -64 -43 -25 0 20 -10 22 -67
19 -68 -3 -95 23 -52 51 18 12 189 24 189 13z m-2124 -99 c9 -16 17 -17 70 -9
69 11 129 1 121 -21 -4 -10 3 -13 26 -11 18 1 59 -2 92 -9 33 -6 83 -10 112
-8 l52 2 -6 -32 c-7 -41 -25 -55 -80 -63 -34 -5 -49 -3 -61 10 -15 14 -14 18
8 41 l23 25 -23 0 c-13 0 -32 -8 -42 -17 -17 -15 -20 -15 -49 6 -16 12 -37 21
-46 19 -15 -3 -15 -4 0 -20 9 -9 17 -22 17 -28 0 -22 -45 1 -80 41 -42 47 -60
50 -60 10 0 -24 -4 -29 -19 -26 -47 9 -67 33 -97 120 l-14 40 23 -26 c12 -14
27 -34 33 -44z m1699 8 c5 -21 10 -45 11 -53 3 -16 13 -119 18 -182 1 -21 -1
-38 -6 -38 -4 0 -8 10 -9 23 0 12 -2 31 -4 42 -2 11 -7 54 -11 95 -3 41 -10
85 -15 98 -11 30 -11 52 0 52 5 0 12 -17 16 -37z m-1322 -32 c5 -5 -15 -4 -45
1 -29 5 -55 12 -58 15 -8 9 94 -7 103 -16z m2477 -24 c0 -18 -71 -57 -103 -57
-13 0 -30 6 -36 14 -17 20 6 34 70 42 30 3 56 8 58 10 8 7 11 4 11 -9z m-261
-11 c23 0 60 -41 47 -53 -20 -21 -155 2 -172 28 -13 22 17 38 59 32 23 -3 53
-6 66 -7z m331 -36 c0 -4 -21 -13 -47 -20 -27 -6 -57 -16 -68 -20 -126 -52
-325 -65 -325 -20 0 6 31 10 83 9 128 -3 187 6 255 39 56 27 102 32 102 12z
m-1960 -31 c0 -11 -4 -17 -10 -14 -5 3 -10 13 -10 21 0 8 5 14 10 14 6 0 10
-9 10 -21z m767 -234 c0 -8 -4 -15 -9 -15 -10 0 -11 14 -1 23 9 10 10 9 10 -8z
m1 -66 c-1 -17 -4 -25 -8 -18 -7 10 -2 49 5 49 2 0 3 -14 3 -31z"/>
</g>
</svg>
